HIERARCHY
ROOT mixamorig:Hips
{
	OFFSET 0.00 0.00 0.00
	CHANNELS 6 Xposition Yposition Zposition Zrotation Yrotation Xrotation
	JOINT mixamorig:Spine
	{
		OFFSET	0.0000	9.9235	-1.2273
		CHANNELS 3 Zrotation Yrotation Xrotation
		JOINT mixamorig:Spine1
		{
			OFFSET	-0.0001	11.6454	-1.4223
			CHANNELS 3 Zrotation Yrotation Xrotation
			JOINT mixamorig:Spine2
			{
				OFFSET	0.0001	13.3602	-1.6265
				CHANNELS 3 Zrotation Yrotation Xrotation
				JOINT mixamorig:Neck
				{
					OFFSET	0.0000	15.0325	0.7929
					CHANNELS 3 Zrotation Yrotation Xrotation
					JOINT mixamorig:Head
					{
						OFFSET	0.0000	10.3218	3.1424
						CHANNELS 3 Zrotation Yrotation Xrotation
						JOINT mixamorig:HeadTop_End
						{
							OFFSET	0.0002	18.4747	6.6364
							CHANNELS 3 Zrotation Yrotation Xrotation
							End Site
							{
								OFFSET 0.0000 0.0000 0.0000
							}
						}
						JOINT mixamorig:LeftEye
						{
							OFFSET	2.9479	7.6817	9.1207
							CHANNELS 3 Zrotation Yrotation Xrotation
							End Site
							{
								OFFSET 0.0000 0.0000 0.0000
							}
						}
						JOINT mixamorig:RightEye
						{
							OFFSET	-2.9445	7.6817	9.1205
							CHANNELS 3 Zrotation Yrotation Xrotation
							End Site
							{
								OFFSET 0.0000 0.0000 0.0000
							}
						}
					}
				}
				JOINT mixamorig:LeftShoulder
				{
					OFFSET	6.1058	9.1104	0.7056
					CHANNELS 3 Zrotation Yrotation Xrotation
					JOINT mixamorig:LeftArm
					{
						OFFSET	12.6532	-0.3431	-2.6009
						CHANNELS 3 Zrotation Yrotation Xrotation
						JOINT mixamorig:LeftForeArm
						{
							OFFSET	27.3517	-0.9645	-1.4034
							CHANNELS 3 Zrotation Yrotation Xrotation
							JOINT mixamorig:LeftHand
							{
								OFFSET	27.5619	-0.7072	1.5501
								CHANNELS 3 Zrotation Yrotation Xrotation
								JOINT mixamorig:LeftHandMiddle1
								{
									OFFSET	12.6631	-1.3962	0.9548
									CHANNELS 3 Zrotation Yrotation Xrotation
									JOINT mixamorig:LeftHandMiddle2
									{
										OFFSET	3.6093	-0.1669	0.0778
										CHANNELS 3 Zrotation Yrotation Xrotation
										JOINT mixamorig:LeftHandMiddle3
										{
											OFFSET	3.4005	-0.6274	0.1147
											CHANNELS 3 Zrotation Yrotation Xrotation
											End Site
											{
												OFFSET 3.6205 -0.6493 0.1199
											}
										}
									}
								}
								JOINT mixamorig:LeftHandThumb1
								{
									OFFSET	3.3268	-2.0475	3.5790
									CHANNELS 3 Zrotation Yrotation Xrotation
									JOINT mixamorig:LeftHandThumb2
									{
										OFFSET	3.4890	-1.4806	2.8548
										CHANNELS 3 Zrotation Yrotation Xrotation
										JOINT mixamorig:LeftHandThumb3
										{
											OFFSET	3.4086	-1.7658	2.1133
											CHANNELS 3 Zrotation Yrotation Xrotation
											End Site
											{
												OFFSET 2.7231 -1.1597 1.7902
											}
										}
									}
								}
								JOINT mixamorig:LeftHandIndex1
								{
									OFFSET	11.9722	-1.1061	3.7324
									CHANNELS 3 Zrotation Yrotation Xrotation
									JOINT mixamorig:LeftHandIndex2
									{
										OFFSET	3.8388	-0.6406	-0.0310
										CHANNELS 3 Zrotation Yrotation Xrotation
										JOINT mixamorig:LeftHandIndex3
										{
											OFFSET	3.3346	-0.7374	-0.0133
											CHANNELS 3 Zrotation Yrotation Xrotation
											End Site
											{
												OFFSET 2.9714 -0.8030 0.0009
											}
										}
									}
								}
								JOINT mixamorig:LeftHandRing1
								{
									OFFSET	12.1659	-1.6805	-1.2769
									CHANNELS 3 Zrotation Yrotation Xrotation
									JOINT mixamorig:LeftHandRing2
									{
										OFFSET	3.5926	-0.2366	-0.0771
										CHANNELS 3 Zrotation Yrotation Xrotation
										JOINT mixamorig:LeftHandRing3
										{
											OFFSET	3.2906	-0.3266	-0.0615
											CHANNELS 3 Zrotation Yrotation Xrotation
											End Site
											{
												OFFSET 3.5423 -0.9211 -0.0200
											}
										}
									}
								}
								JOINT mixamorig:LeftHandPinky1
								{
									OFFSET	11.0508	-2.1872	-3.8040
									CHANNELS 3 Zrotation Yrotation Xrotation
									JOINT mixamorig:LeftHandPinky2
									{
										OFFSET	4.1236	-0.3047	0.1212
										CHANNELS 3 Zrotation Yrotation Xrotation
										JOINT mixamorig:LeftHandPinky3
										{
											OFFSET	2.5805	-0.2597	0.0823
											CHANNELS 3 Zrotation Yrotation Xrotation
											End Site
											{
												OFFSET 2.9027 -0.3379 0.0963
											}
										}
									}
								}
							}
						}
					}
				}
				JOINT mixamorig:RightShoulder
				{
					OFFSET	-6.1057	9.1105	0.7056
					CHANNELS 3 Zrotation Yrotation Xrotation
					JOINT mixamorig:RightArm
					{
						OFFSET	-12.6532	-0.3429	-2.6009
						CHANNELS 3 Zrotation Yrotation Xrotation
						JOINT mixamorig:RightForeArm
						{
							OFFSET	-27.3517	-0.9641	-1.4034
							CHANNELS 3 Zrotation Yrotation Xrotation
							JOINT mixamorig:RightHand
							{
								OFFSET	-27.5619	-0.7068	1.5501
								CHANNELS 3 Zrotation Yrotation Xrotation
								JOINT mixamorig:RightHandMiddle1
								{
									OFFSET	-12.6631	-1.3960	0.9549
									CHANNELS 3 Zrotation Yrotation Xrotation
									JOINT mixamorig:RightHandMiddle2
									{
										OFFSET	-3.6093	-0.1669	0.0778
										CHANNELS 3 Zrotation Yrotation Xrotation
										JOINT mixamorig:RightHandMiddle3
										{
											OFFSET	-3.4005	-0.6273	0.1148
											CHANNELS 3 Zrotation Yrotation Xrotation
											End Site
											{
												OFFSET -3.6205 -0.6492 0.1199
											}
										}
									}
								}
								JOINT mixamorig:RightHandThumb1
								{
									OFFSET	-3.3269	-2.0474	3.5791
									CHANNELS 3 Zrotation Yrotation Xrotation
									JOINT mixamorig:RightHandThumb2
									{
										OFFSET	-3.4890	-1.4805	2.8548
										CHANNELS 3 Zrotation Yrotation Xrotation
										JOINT mixamorig:RightHandThumb3
										{
											OFFSET	-3.4086	-1.7658	2.1133
											CHANNELS 3 Zrotation Yrotation Xrotation
											End Site
											{
												OFFSET -2.7231 -1.1596 1.7902
											}
										}
									}
								}
								JOINT mixamorig:RightHandIndex1
								{
									OFFSET	-11.9722	-1.1059	3.7325
									CHANNELS 3 Zrotation Yrotation Xrotation
									JOINT mixamorig:RightHandIndex2
									{
										OFFSET	-3.8388	-0.6406	-0.0310
										CHANNELS 3 Zrotation Yrotation Xrotation
										JOINT mixamorig:RightHandIndex3
										{
											OFFSET	-3.3346	-0.7373	-0.0133
											CHANNELS 3 Zrotation Yrotation Xrotation
											End Site
											{
												OFFSET -2.9714 -0.8029 0.0009
											}
										}
									}
								}
								JOINT mixamorig:RightHandRing1
								{
									OFFSET	-12.1659	-1.6803	-1.2769
									CHANNELS 3 Zrotation Yrotation Xrotation
									JOINT mixamorig:RightHandRing2
									{
										OFFSET	-3.5926	-0.2366	-0.0771
										CHANNELS 3 Zrotation Yrotation Xrotation
										JOINT mixamorig:RightHandRing3
										{
											OFFSET	-3.2906	-0.3265	-0.0615
											CHANNELS 3 Zrotation Yrotation Xrotation
											End Site
											{
												OFFSET -3.5423 -0.9210 -0.0200
											}
										}
									}
								}
								JOINT mixamorig:RightHandPinky1
								{
									OFFSET	-11.0508	-2.1870	-3.8040
									CHANNELS 3 Zrotation Yrotation Xrotation
									JOINT mixamorig:RightHandPinky2
									{
										OFFSET	-4.1236	-0.3046	0.1212
										CHANNELS 3 Zrotation Yrotation Xrotation
										JOINT mixamorig:RightHandPinky3
										{
											OFFSET	-2.5805	-0.2597	0.0823
											CHANNELS 3 Zrotation Yrotation Xrotation
											End Site
											{
												OFFSET -2.9027 -0.3379 0.0963
											}
										}
									}
								}
							}
						}
					}
				}
			}
		}
	}
	JOINT mixamorig:RightUpLeg
	{
		OFFSET	-9.1245	-6.6564	-0.0554
		CHANNELS 3 Zrotation Yrotation Xrotation
		JOINT mixamorig:RightLeg
		{
			OFFSET	-0.0000	-40.5610	-1.7663
			CHANNELS 3 Zrotation Yrotation Xrotation
			JOINT mixamorig:RightFoot
			{
				OFFSET	0.4978	-41.9625	-3.3512
				CHANNELS 3 Zrotation Yrotation Xrotation
				JOINT mixamorig:RightToeBase
				{
					OFFSET	-0.3734	-10.4922	12.6407
					CHANNELS 3 Zrotation Yrotation Xrotation
					End Site
					{
						OFFSET 0.0000 -0.0000 9.9925
					}
				}
			}
		}
	}
	JOINT mixamorig:LeftUpLeg
	{
		OFFSET	9.1245	-6.6564	-0.0554
		CHANNELS 3 Zrotation Yrotation Xrotation
		JOINT mixamorig:LeftLeg
		{
			OFFSET	0.0000	-40.5610	-1.7663
			CHANNELS 3 Zrotation Yrotation Xrotation
			JOINT mixamorig:LeftFoot
			{
				OFFSET	-0.4978	-41.9625	-3.3512
				CHANNELS 3 Zrotation Yrotation Xrotation
				JOINT mixamorig:LeftToeBase
				{
					OFFSET	0.3734	-10.4922	12.6407
					CHANNELS 3 Zrotation Yrotation Xrotation
					End Site
					{
						OFFSET -0.0000 -0.0000 9.9925
					}
				}
			}
		}
	}
}
MOTION
Frames: 6
Frame Time: 0.0333333
1.5871 94.8233 -1.1130 -1.0089 1.5711 -4.3036 0.5384 0.2033 2.6382 0.8280 0.3597 4.3322 0.8234 0.3602 4.3327 1.2778 -1.1951 9.2542 3.6806 -5.0546 -11.4678 0.0000 -0.0000 0.0000 0.0000 -0.0000 0.0000 0.0000 -0.0000 0.0000 4.8564 -0.9059 0.0255 -2.7158 21.1285 -58.1195 163.2419 -84.1842 -165.3246 15.1729 -6.8300 -17.8592 -93.7705 -1.2035 6.5386 -88.5835 -0.8899 3.4628 -34.2352 -1.1128 1.2498 -5.0095 -3.9806 -5.3748 -5.6164 35.3722 7.5314 6.0263 62.2033 38.9433 -95.5163 -4.7246 5.8803 -73.5279 -2.2704 0.6453 -17.1459 -0.4596 -0.0730 -106.6829 -2.9952 6.6843 -83.1029 -3.2060 0.5017 -15.3308 -0.2140 -0.1937 -90.8214 2.0420 6.6520 -81.3997 -1.8666 7.4812 -20.9967 -0.7042 0.7302 -2.0319 1.0020 0.2768 -10.7771 -13.3687 -61.9339 -47.8856 88.0698 -49.8798 -0.1036 15.2336 -3.6462 96.4647 1.2552 6.5604 83.5724 0.8955 3.1957 30.6574 1.0097 1.1339 -3.2457 7.8662 -24.0208 -6.2716 -26.2071 12.7315 -2.2832 -42.9385 7.8048 92.9188 8.4426 5.1323 84.9263 2.4143 0.9411 21.6686 0.5929 -0.0695 100.6252 3.0530 6.4695 90.5492 3.3246 0.7020 29.3433 0.7353 -0.4073 120.9661 -1.9651 7.0762 94.9398 0.5458 3.9943 46.4432 1.1268 1.8731 -8.1034 -14.8586 -13.6905 -6.9768 -5.6422 34.0379 12.9407 -2.4245 -11.8554 -0.0000 0.0000 -0.0030 10.0087 16.6673 -14.9962 3.6763 2.0912 35.7602 -10.1203 -0.5788 -13.2590 0.0000 0.0000 -0.0000 
1.4574 94.7608 -1.1180 -1.2996 -2.2212 -4.5342 0.5289 -0.1015 2.6577 0.8146 -0.1871 4.3823 0.8136 -0.1856 4.3821 1.2293 -1.3638 9.2112 3.9134 -6.0229 -11.6992 0.0000 -0.0000 0.0000 0.0000 -0.0000 0.0000 0.0000 -0.0000 0.0000 5.1589 -0.8442 -0.0002 -4.0310 20.5833 -58.2124 163.7106 -83.9966 -165.7958 14.2849 -6.9658 -17.3662 -93.7230 -1.2066 6.5367 -88.5846 -0.8899 3.4629 -34.2419 -1.1129 1.2501 -5.0298 -3.9340 -5.3011 -5.6199 35.4022 7.5406 6.0360 62.2080 38.9552 -95.4147 -4.7116 5.8798 -73.3863 -2.2672 0.6413 -17.1370 -0.4593 -0.0730 -106.5966 -2.9986 6.6825 -83.0578 -3.2048 0.5002 -15.3244 -0.2137 -0.1937 -90.7490 2.0493 6.6498 -81.3594 -1.8702 7.4788 -20.9929 -0.7041 0.7301 -2.0410 1.5763 0.3115 -10.7391 -14.5227 -62.1025 -46.9011 88.0411 -48.8947 -0.0891 15.2761 -3.9038 96.3730 1.2706 6.5568 83.5648 0.8956 3.1954 30.6282 1.0090 1.1319 -3.4293 7.7936 -23.9302 -6.2716 -26.2071 12.7315 -2.2788 -42.9113 7.7987 92.8507 8.4468 5.1296 84.8866 2.4137 0.9399 21.6071 0.5908 -0.0696 100.5881 3.0561 6.4684 90.4666 3.3227 0.6990 29.3124 0.7345 -0.4055 120.9321 -1.9566 7.0758 94.8293 0.5491 3.9901 46.3776 1.1263 1.8700 -7.4307 -14.3617 -14.5266 -7.0540 -5.1924 34.2539 12.0565 0.3422 -11.2424 0.0000 0.0000 -0.0041 11.2569 17.7405 -13.6271 4.5656 4.2638 36.1156 -10.8575 -0.6792 -13.6770 0.0000 0.0000 -0.0000 
1.3283 94.6810 -1.1171 -1.5426 -6.0097 -4.6578 0.5495 -0.3544 2.6702 0.8507 -0.6417 4.4110 0.8523 -0.6400 4.4104 1.0691 -1.3839 9.0301 4.0911 -6.4108 -11.9707 0.0000 -0.0000 0.0000 0.0000 -0.0000 0.0000 0.0000 -0.0000 0.0000 5.2136 -0.4741 -0.0160 -4.8466 19.3119 -57.8055 163.3331 -84.1487 -165.4163 14.7060 -6.9195 -16.2558 -93.6719 -1.2101 6.5347 -88.5379 -0.8907 3.4610 -34.2196 -1.1125 1.2491 -5.0246 -3.8837 -5.2251 -5.6218 35.4190 7.5456 6.0456 62.2125 38.9670 -95.3292 -4.6974 5.8799 -73.3274 -2.2658 0.6397 -17.1453 -0.4596 -0.0730 -106.5294 -3.0004 6.6811 -83.0006 -3.2032 0.4982 -15.3206 -0.2135 -0.1936 -90.6828 2.0571 6.6479 -81.2897 -1.8764 7.4746 -20.9902 -0.7041 0.7299 -2.1280 2.4245 0.3710 -10.8788 -16.7558 -61.9751 -48.8757 88.0972 -50.8704 -0.8989 15.2829 -4.8659 96.3129 1.2792 6.5544 83.5344 0.8960 3.1941 30.6177 1.0086 1.1307 -3.3221 7.7712 -23.8779 -6.2716 -26.2070 12.7315 -2.2733 -42.8769 7.7908 92.7823 8.4457 5.1278 84.8489 2.4131 0.9387 21.5833 0.5899 -0.0696 100.5849 3.0561 6.4683 90.4083 3.3213 0.6970 29.3015 0.7344 -0.4039 120.9026 -1.9485 7.0752 94.7337 0.5519 3.9865 46.3476 1.1261 1.8685 -6.6214 -13.8015 -15.4820 -5.6043 -2.4821 34.3656 11.1033 0.3829 -11.1920 0.0000 0.0000 -0.0135 12.4082 18.7057 -12.2927 5.5441 6.5071 36.5284 -11.6524 -0.7861 -14.0591 0.0000 0.0000 0.0000 
1.2157 94.6104 -1.1566 -1.7781 -9.7629 -4.6593 0.5511 -0.6513 2.6370 0.8582 -1.1750 4.3612 0.8629 -1.1726 4.3602 0.9037 -1.2573 8.9772 4.2233 -6.0864 -11.9561 0.0000 -0.0000 0.0000 0.0000 -0.0000 0.0000 0.0000 -0.0000 0.0000 5.2124 -0.1833 -0.0250 -5.1455 18.4165 -57.3306 162.6948 -84.3883 -164.7747 15.4876 -6.5404 -16.0039 -93.6151 -1.2138 6.5324 -88.4827 -0.8918 3.4587 -34.2130 -1.1124 1.2488 -5.0570 -3.7920 -5.0811 -5.6245 35.4423 7.5527 6.0391 62.2071 38.9583 -95.2416 -4.6833 5.8799 -73.2675 -2.2645 0.6380 -17.1639 -0.4602 -0.0730 -106.4422 -3.0038 6.6793 -82.9436 -3.2015 0.4963 -15.3324 -0.2140 -0.1938 -90.5814 2.0623 6.6444 -81.2115 -1.8834 7.4698 -20.9891 -0.7040 0.7299 -2.1842 3.0491 0.4084 -10.8955 -18.1066 -62.1863 -48.1462 88.0771 -50.1405 -0.9457 15.2578 -5.6519 96.3047 1.2667 6.5547 83.5377 0.8960 3.1942 30.5997 1.0082 1.1297 -3.5600 7.7139 -23.8199 -6.2716 -26.2071 12.7315 -2.2633 -42.8145 7.7762 92.7028 8.4571 5.1237 84.8113 2.4124 0.9376 21.5741 0.5896 -0.0696 100.5553 3.0563 6.4675 90.3693 3.3203 0.6956 29.3109 0.7352 -0.4023 120.8947 -1.9422 7.0748 94.6642 0.5540 3.9840 46.3310 1.1259 1.8678 -5.8398 -13.2432 -16.4833 -3.9162 0.3116 34.4903 10.0785 0.3069 -11.0651 0.0000 -0.0000 -0.0268 13.3557 19.5005 -11.0770 5.7877 7.6621 36.7864 -12.4457 0.5510 -14.6325 -0.0000 0.0000 0.0000 
1.1028 94.5276 -1.1783 -1.9818 -13.2894 -4.6892 0.5583 -0.9526 2.6167 0.8636 -1.7153 4.3395 0.8711 -1.7129 4.3381 0.7083 -1.1534 8.7572 4.1496 -5.8529 -11.7761 0.0000 -0.0000 0.0000 0.0000 -0.0000 0.0000 0.0000 -0.0000 0.0000 5.1744 0.1696 -0.0335 -5.0350 17.2175 -57.0218 161.5120 -84.7824 -163.5868 15.8311 -6.2241 -15.3803 -93.5506 -1.2183 6.5298 -88.4631 -0.8921 3.4579 -34.2353 -1.1128 1.2498 -5.0650 -3.7103 -4.9557 -5.6307 35.4992 7.5703 6.0048 62.1844 38.9142 -95.1375 -4.6705 5.8792 -73.2077 -2.2631 0.6363 -17.2068 -0.4618 -0.0730 -106.3516 -3.0076 6.6774 -82.8865 -3.1999 0.4944 -15.3329 -0.2140 -0.1937 -90.5123 2.0698 6.6423 -81.0882 -1.8944 7.4623 -20.9673 -0.7034 0.7290 -2.2645 3.6444 0.4488 -11.0038 -19.6352 -62.3832 -43.6027 87.9340 -45.5942 -0.9370 15.5623 -6.6465 96.2629 1.2571 6.5538 83.5609 0.8956 3.1952 30.6176 1.0086 1.1302 -3.4641 7.7277 -23.8271 -6.2716 -26.2070 12.7315 -2.2526 -42.7487 7.7608 92.6392 8.4365 5.1251 84.7755 2.4119 0.9365 21.5750 0.5897 -0.0696 100.5821 3.0436 6.4689 90.3486 3.3199 0.6948 29.3500 0.7373 -0.4007 121.0031 -1.9456 7.0745 94.6063 0.5557 3.9818 46.3139 1.1258 1.8669 -4.9670 -12.5337 -17.3919 -2.7420 2.6972 34.7453 9.3125 0.2346 -10.9045 0.0000 -0.0000 -0.0433 14.1057 20.0872 -9.8908 5.5637 8.0041 36.9397 -13.2805 2.8144 -15.3998 -0.0000 0.0000 -0.0000 
1.0057 94.4321 -1.1589 -2.1165 -16.6981 -4.6871 0.5235 -1.2344 2.5803 0.8153 -2.2205 4.2837 0.8253 -2.2165 4.2827 0.5968 -1.1366 8.6248 4.1675 -5.9272 -12.0690 0.0000 -0.0000 0.0000 0.0000 -0.0000 0.0000 0.0000 -0.0000 0.0000 5.0749 0.6238 -0.0414 -4.1841 15.6063 -56.5685 158.9505 -85.4652 -161.0160 15.6723 -6.3656 -14.4441 -93.5052 -1.2212 6.5279 -88.4726 -0.8920 3.4582 -34.2214 -1.1125 1.2492 -5.0819 -3.6450 -4.8541 -5.6316 35.5059 7.5723 5.9774 62.1660 38.8788 -95.0757 -4.6545 5.8801 -73.1206 -2.2611 0.6339 -17.2199 -0.4622 -0.0731 -106.2483 -3.0123 6.6752 -82.8313 -3.1984 0.4926 -15.3440 -0.2145 -0.1939 -90.4650 2.0789 6.6412 -81.0102 -1.9014 7.4576 -20.9389 -0.7026 0.7279 -2.2067 4.0930 0.4784 -11.0310 -20.9420 -62.5758 -40.3154 87.8073 -42.3047 -1.1021 15.7219 -7.3600 96.1623 1.2533 6.5508 83.5751 0.8954 3.1958 30.6311 1.0088 1.1306 -3.2519 7.7484 -23.8285 -6.2716 -26.2070 12.7315 -2.2456 -42.7042 7.7506 92.5194 8.4160 5.1249 84.7195 2.4110 0.9347 21.6121 0.5909 -0.0696 100.6200 3.0279 6.4709 90.3781 3.3206 0.6959 29.4205 0.7407 -0.3993 121.1580 -1.9527 7.0743 94.6035 0.5557 3.9817 46.3168 1.1258 1.8671 -4.1317 -11.7899 -18.2859 -1.7205 4.9619 35.1149 8.6696 0.1775 -10.7676 0.0000 0.0000 -0.0463 14.6745 20.5109 -8.7421 5.3459 8.3279 37.0646 -14.1632 5.1188 -16.2303 -0.0000 -0.0000 -0.0000 
